Coordinates
version=1
nRows=13
nColumns=34
inDegrees=no

Units are S.I. units (second, meters, Newtons, ...)
If the header above contains a line with 'inDegrees', this indicates whether rotational values are in degrees (yes) or radians (no).

endheader
time	pelvis_tilt	pelvis_list	pelvis_rotation	pelvis_tx	pelvis_ty	pelvis_tz	hip_flexion_r	hip_adduction_r	hip_rotation_r	knee_angle_r	ankle_angle_r	subtalar_angle_r	mtp_angle_r	hip_flexion_l	hip_adduction_l	hip_rotation_l	knee_angle_l	ankle_angle_l	subtalar_angle_l	mtp_angle_l	lumbar_extension	lumbar_bending	lumbar_rotation	arm_flex_r	arm_add_r	arm_rot_r	elbow_flex_r	pro_sup_r	arm_flex_l	arm_add_l	arm_rot_l	elbow_flex_l	pro_sup_l
180.019	0.0690878	-0.0881651	2.23188	-0.0520803	0.816957	-0.0742784	0.608301	0.0465644	-0.00395693	1.08645	0.499731	-0.129294	0	0.597081	-0.307427	-0.127297	1.22585	0.429386	-0.0559435	0	0.00520441	0.0751811	0.155865	1.43776	-0.614493	0.667696	1.63019	1.011	0.343951	-0.25784	0.430777	0.50305	2.09
180.039	0.0681772	-0.091166	2.22544	-0.0514997	0.817412	-0.0745649	0.609482	0.0497933	0.00162806	1.08404	0.497147	-0.129927	0	0.600387	-0.309946	-0.130139	1.2296	0.418858	-0.059465	0	0.00638684	0.0734995	0.146997	1.43844	-0.619954	0.658979	1.62917	1.02655	0.346483	-0.256505	0.444715	0.504412	2.09
180.059	0.0672549	-0.0942961	2.21895	-0.0509211	0.817849	-0.0748465	0.610844	0.052959	0.00741874	1.08174	0.494494	-0.130774	0	0.604106	-0.312238	-0.132752	1.23373	0.407917	-0.0633973	0	0.00764297	0.0718673	0.138442	1.43924	-0.625281	0.650195	1.62813	1.04336	0.349126	-0.254838	0.457998	0.505599	2.09
180.079	0.0662993	-0.0974922	2.21243	-0.0503472	0.818279	-0.0751246	0.612297	0.0560351	0.0133407	1.07952	0.491776	-0.131723	0	0.608251	-0.31431	-0.135067	1.23828	0.396425	-0.067869	0	0.00888521	0.0703153	0.130199	1.44024	-0.630481	0.641457	1.62705	1.06153	0.351876	-0.252765	0.470388	0.506536	2.09
180.099	0.0652854	-0.100665	2.20591	-0.0497818	0.818718	-0.0753991	0.61371	0.0589998	0.0193037	1.07729	0.489006	-0.132672	0	0.612801	-0.316189	-0.137036	1.24329	0.384247	-0.0729517	0	0.0100064	0.0688759	0.122228	1.44148	-0.635547	0.632905	1.62585	1.08098	0.354728	-0.250278	0.481802	0.507237	2.09
180.119	0.0641897	-0.103702	2.19942	-0.049229	0.819183	-0.075669	0.614928	0.0618501	0.0252213	1.07497	0.486193	-0.133541	0	0.617696	-0.31793	-0.138641	1.24875	0.371267	-0.0786534	0	0.0108883	0.0675831	0.11447	1.44303	-0.640461	0.624676	1.62443	1.10149	0.357673	-0.247428	0.492284	0.507796	2.09
180.139	0.0629928	-0.106482	2.19299	-0.0486909	0.819693	-0.0759333	0.615783	0.0646027	0.0310193	1.07245	0.483347	-0.134274	0	0.622841	-0.319605	-0.139891	1.25463	0.357405	-0.084934	0	0.0114116	0.066469	0.106864	1.44493	-0.645197	0.616888	1.62267	1.12277	0.360705	-0.244308	0.501961	0.508355	2.09
180.159	0.0616806	-0.10889	2.18666	-0.0481675	0.820265	-0.0761913	0.616121	0.0672847	0.0366396	1.06966	0.480473	-0.134828	0	0.628121	-0.32129	-0.14082	1.2609	0.342606	-0.0917285	0	0.0114694	0.0655577	0.0993675	1.44719	-0.649747	0.609626	1.62049	1.14454	0.363822	-0.241018	0.51099	0.509062	2.09
180.179	0.0602427	-0.110839	2.18043	-0.0476568	0.82091	-0.0764424	0.615822	0.0699157	0.0420413	1.0665	0.477569	-0.135166	0	0.633433	-0.323045	-0.14147	1.2675	0.326834	-0.098981	0	0.0109817	0.0648539	0.0919581	1.4498	-0.654133	0.602947	1.61785	1.16664	0.367035	-0.237648	0.519518	0.510032	2.08998
180.199	0.0586705	-0.112287	2.17432	-0.0471562	0.821637	-0.0766856	0.614826	0.0724956	0.0472049	1.06292	0.474628	-0.135264	0	0.638715	-0.324891	-0.141882	1.27436	0.310057	-0.106672	0	0.00990586	0.064338	0.0846361	1.45272	-0.65841	0.596887	1.61475	1.18894	0.370358	-0.234257	0.527673	0.511327	2.08997
180.219	0.0569604	-0.113245	2.16835	-0.0466633	0.82245	-0.076919	0.613139	0.0750073	0.05214	1.0589	0.471634	-0.135138	0	0.643974	-0.326809	-0.142084	1.28147	0.292229	-0.114829	0	0.00824245	0.0639675	0.077417	1.45594	-0.662662	0.591477	1.61123	1.21141	0.373815	-0.23087	0.535558	0.512944	2.08995
180.239	0.0551166	-0.113776	2.16253	-0.0461773	0.823344	-0.0771399	0.610833	0.0774315	0.0568949	1.05444	0.468565	-0.134868	0	0.649293	-0.328748	-0.142091	1.28881	0.273292	-0.123519	0	0.00603477	0.0636852	0.0703206	1.45942	-0.666977	0.586742	1.60734	1.23401	0.377424	-0.227482	0.54326	0.514833	2.08992
180.259	0.0531561	-0.113976	2.15686	-0.045699	0.824312	-0.0773445	0.608034	0.0797671	0.0615629	1.04957	0.465404	-0.134621	0	0.654824	-0.330648	-0.141906	1.29643	0.253185	-0.132829	0	0.00336339	0.0634311	0.063362	1.46314	-0.671421	0.582701	1.60313	1.25672	0.381195	-0.224072	0.550842	0.516912	2.08992
